<?xml version="1.0" standalone="no"?><!DOCTYPE svg PUBLIC "-//W3C//DTD SVG 1.1//EN" "http://www.w3.org/Graphics/SVG/1.1/DTD/svg11.dtd"><svg t="1567413902912" class="icon" viewBox="0 0 1024 1024" version="1.1" xmlns="http://www.w3.org/2000/svg" p-id="4002" xmlns:xlink="http://www.w3.org/1999/xlink" width="200" height="200"><defs><style type="text/css"></style></defs><path d="M372.099381 671.885837c-2.381557 0-4.763115 0-7.077095-0.013311l-6.441263-0.01331c-127.347785 0-262.693138-35.710048-262.693138-101.89502 0-7.658662 6.197578-13.85624 13.85624-13.85624s13.85624 6.197578 13.85624 13.85624c0 35.01995 100.487177 74.181516 234.979634 74.181516l6.53546 0.01331c7.604396 0.054266 15.804694 0.067576 22.624794-0.202729 7.645352-0.459725 14.099925 5.670277 14.384565 13.301294 0.297951 7.645352-5.655943 14.086614-13.301294 14.384565-5.086662 0.202729-10.918713 0.243685-16.724143 0.243685zM381.693186 564.672757c-3.761755 0-7.483578-0.067576-11.285264-0.135153l-11.826899-0.148464c-127.347785 0-262.693138-35.710048-262.693138-101.895019 0-7.658662 6.197578-13.85624 13.85624-13.85624s13.85624 6.197578 13.85624 13.85624c0 35.01995 100.487177 74.181516 234.979634 74.181515l12.3542 0.148464c7.009519 0.135153 13.721087 0.28464 21.069513-0.108532 7.577775-0.230374 14.154191 5.494169 14.546338 13.13952 0.378838 7.645352-5.494169 14.154191-13.13952 14.546339a230.415154 230.415154 0 0 1-11.717344 0.27133zM358.581023 456.905755c-127.347785 0-262.693138-35.710048-262.693138-101.880686 0-7.658662 6.197578-13.85624 13.85624-13.85624s13.85624 6.197578 13.85624 13.85624c0 35.006639 100.487177 74.168205 234.979634 74.168205 134.505767 0 235.007279-39.161566 235.007279-74.168205 0-7.658662 6.197578-13.85624 13.85624-13.85624s13.85624 6.197578 13.85624 13.85624c0.001024 66.169613-135.35764 101.880685-262.718735 101.880686z" p-id="4003"></path><path d="M373.140672 779.369223c-2.530021 0-5.061065-0.013311-7.551154-0.013311l-7.009519-0.026621c-127.347785 0-262.693138-35.710048-262.693138-101.880685V242.629082c0-7.658662 6.197578-13.85624 13.85624-13.856241s13.85624 6.197578 13.85624 13.856241V677.446558c0 35.006639 100.487177 74.168205 234.979634 74.168205l7.131361 0.026621c7.414978-0.013311 15.209817 0.054266 22.016607-0.202729 7.658662-0.581567 14.099925 5.642632 14.397875 13.287984 0.311261 7.658662-5.642632 14.099925-13.287984 14.397875-4.897244 0.203753-10.296191 0.244709-15.696162 0.244709zM607.444542 490.830147c-7.658662 0-13.85624-6.197578-13.85624-13.85624V242.629082c0-7.658662 6.197578-13.85624 13.85624-13.856241s13.85624 6.197578 13.85624 13.856241v234.343801c0 7.659686-6.197578 13.857264-13.85624 13.857264z" p-id="4004"></path><path d="M358.581023 344.510791c-127.347785 0-262.693138-35.710048-262.693138-101.880686s135.345353-101.880685 262.693138-101.880685c127.361096 0 262.719759 35.710048 262.719759 101.880685s-135.358664 101.880685-262.719759 101.880686z m0-176.048891c-134.492457 0-234.979634 39.161566-234.979634 74.168205s100.487177 74.168205 234.979634 74.168206c134.505767 0 235.007279-39.161566 235.007279-74.168206s-100.501512-74.168205-235.007279-74.168205zM650.827587 780.126898c-133.991777 0-276.400915-34.627802-276.400915-98.80903 0-7.658662 6.197578-13.85624 13.85624-13.85624 7.658662 0 13.85624 6.197578 13.85624 13.85624 0 29.688579 94.614171 71.096549 248.687411 71.09655 154.114195 0 248.741677-41.406946 248.741677-71.09655 0-7.658662 6.197578-13.85624 13.85624-13.85624s13.85624 6.197578 13.856241 13.85624c0.002048 64.181228-142.433711 98.809029-276.453134 98.80903z" p-id="4005"></path><path d="M650.827587 883.861839c-133.991777 0-276.400915-34.641112-276.400915-98.823363V572.833123c0-7.658662 6.197578-13.85624 13.85624-13.85624 7.658662 0 13.85624 6.197578 13.85624 13.85624v212.206377c0 29.688579 94.614171 71.10986 248.687411 71.109859 154.114195 0 248.741677-41.421281 248.741677-71.109859V572.833123c0-7.658662 6.197578-13.85624 13.85624-13.85624s13.85624 6.197578 13.856241 13.85624v212.206377c0.002048 64.180204-142.433711 98.82234-276.453134 98.822339z" p-id="4006"></path><path d="M650.827587 671.655463c-133.991777 0-276.400915-36.617211-276.400915-104.479307S516.83581 462.69685 650.827587 462.69685c134.019422 0 276.455181 36.617211 276.455181 104.479306S784.847009 671.655463 650.827587 671.655463z m0-181.245109c-142.327227 0-248.687411 40.527429-248.687411 76.765802s106.360184 76.765802 248.687411 76.765803c142.368183 0 248.741677-40.527429 248.741677-76.765803s-106.373494-76.765802-248.741677-76.765802z" p-id="4007"></path></svg>