<?xml version="1.0" standalone="no"?><!DOCTYPE svg PUBLIC "-//W3C//DTD SVG 1.1//EN" "http://www.w3.org/Graphics/SVG/1.1/DTD/svg11.dtd"><svg t="1573176351936" class="icon" viewBox="0 0 1024 1024" version="1.1" xmlns="http://www.w3.org/2000/svg" p-id="2266" xmlns:xlink="http://www.w3.org/1999/xlink" width="200" height="200"><defs><style type="text/css"></style></defs><path d="M729.6 960H230.4C134.4 960 64 896 64 819.2V204.8C64 128 134.4 64 230.4 64h505.6C825.6 64 896 128 896 204.8v275.2l-32 12.8-70.4-64c-6.4-6.4-6.4-19.2 0-25.6 6.4-6.4 19.2-6.4 25.6 0l38.4 32V204.8c0-57.6-57.6-102.4-128-102.4H230.4c-70.4 0-128 44.8-128 102.4v614.4c0 57.6 57.6 102.4 128 102.4h505.6c70.4 0 128-44.8 128-102.4v-153.6c0-12.8 6.4-19.2 19.2-19.2s19.2 6.4 19.2 19.2v153.6C896 896 825.6 960 729.6 960z" fill="" p-id="2267"></path><path d="M364.8 275.2c0 6.4-6.4 12.8-6.4 12.8 0 6.4-6.4 12.8-6.4 12.8h153.6c-12.8 0-12.8-6.4-19.2-6.4s-12.8-12.8-12.8-19.2l-12.8-12.8s0-6.4 6.4-12.8 19.2-6.4 32 0c0 6.4 6.4 12.8 12.8 19.2l12.8 12.8c6.4 12.8 12.8 19.2 6.4 25.6h147.2c12.8 0 19.2 6.4 19.2 19.2 0 12.8-6.4 19.2-19.2 19.2H518.4v32h140.8c12.8 0 19.2 6.4 19.2 19.2 0 12.8-6.4 19.2-19.2 19.2H518.4V448h140.8c12.8 0 19.2 6.4 19.2 19.2 0 12.8-6.4 19.2-19.2 19.2H518.4v32h160c12.8 0 19.2 6.4 19.2 19.2 0 12.8-6.4 19.2-19.2 19.2H326.4v12.8c0 6.4 0 12.8-6.4 12.8h-12.8c-12.8 0-19.2-6.4-19.2-19.2V390.4c-6.4 6.4-12.8 12.8-12.8 19.2l-19.2 19.2c-6.4 6.4-12.8 6.4-19.2 6.4-6.4 0-6.4 0-12.8-6.4 0 0-6.4-6.4-6.4-12.8s6.4-12.8 12.8-19.2c6.4-6.4 19.2-12.8 25.6-25.6 12.8-12.8 19.2-25.6 25.6-38.4 12.8-12.8 19.2-25.6 32-38.4 6.4-12.8 12.8-25.6 19.2-32 6.4-6.4 6.4-12.8 12.8-12.8h19.2l6.4 6.4s0 12.8-6.4 19.2z m307.2 403.2v25.6c0 6.4-6.4 12.8-6.4 12.8-6.4 6.4-6.4 6.4-12.8 6.4H300.8c-6.4 0-12.8-6.4-12.8-6.4-6.4-6.4-6.4-6.4-6.4-12.8V633.6v-25.6c0-6.4 6.4-12.8 6.4-12.8 6.4-6.4 6.4-6.4 12.8-6.4H652.8c6.4 0 12.8 6.4 12.8 6.4 6.4 6.4 6.4 6.4 6.4 12.8v70.4z m-38.4-44.8c0-6.4-6.4-6.4-12.8-6.4H320c-6.4 0-6.4 0-6.4 6.4v57.6H627.2v-57.6z m-307.2-256h153.6v-32H326.4v32z m0 70.4h153.6v-32H326.4V448z m0 70.4h153.6v-38.4H326.4v38.4zM876.8 499.2c-6.4 0-12.8 0-12.8-6.4-6.4-6.4-6.4-19.2 0-25.6l64-64c6.4-6.4 19.2-6.4 25.6 0s6.4 19.2 0 25.6l-64 64c0 6.4-6.4 6.4-12.8 6.4z" fill="" p-id="2268"></path></svg>